<?xml version="1.0" encoding="UTF-8"?>
<svg width="20px" height="16px" viewBox="0 0 20 16" version="1.1" xmlns="http://www.w3.org/2000/svg" xmlns:xlink="http://www.w3.org/1999/xlink">
    <!-- Generator: Sketch 47.1 (45422) - http://www.bohemiancoding.com/sketch -->
    <title>Combined Shape</title>
    <desc>Created with Sketch.</desc>
    <defs></defs>
    <g id="Page-1" stroke="none" stroke-width="1" fill="none" fill-rule="evenodd">
        <g id="Desktop-HD-Copy" transform="translate(-211.000000, -67.000000)" fill-rule="nonzero" fill="#FFFFFF">
            <g id="Group-3" transform="translate(211.000000, 62.000000)">
                <g id="Group-2" transform="translate(10.000000, 13.333333) rotate(180.000000) translate(-10.000000, -13.333333) translate(0.000000, 5.333333)">
                    <path d="M17.154822,7.33333333 L11.7055683,1.88407961 C11.3801314,1.5586427 11.3801314,1.03100522 11.7055683,0.705568306 C12.0310052,0.380131397 12.5586427,0.380131397 12.8840796,0.705568306 L19.7559223,7.57741102 C19.9186408,7.74012947 20,7.95339807 20,8.16666667 C20,8.37993526 19.9186408,8.59320386 19.7559223,8.75592232 L12.8840796,15.627765 C12.5586427,15.9532019 12.0310052,15.9532019 11.7055683,15.627765 C11.3801314,15.3023281 11.3801314,14.7746906 11.7055683,14.4492537 L17.154822,9 L0.833333333,9 C0.373096042,9 0,8.62690396 0,8.16666667 C0,7.70642938 0.373096042,7.33333333 0.833333333,7.33333333 L17.154822,7.33333333 Z" id="Combined-Shape"></path>
                </g>
            </g>
        </g>
    </g>
</svg>