<?xml version="1.0" encoding="UTF-8" standalone="no"?>
<svg width="22px" height="19px" viewBox="0 0 22 19" version="1.1" xmlns="http://www.w3.org/2000/svg" xmlns:xlink="http://www.w3.org/1999/xlink">
    <!-- Generator: Sketch 47.1 (45422) - http://www.bohemiancoding.com/sketch -->
    <title>icon_menu</title>
    <desc>Created with Sketch.</desc>
    <defs></defs>
    <g id="Page-1" stroke="none" stroke-width="1" fill="none" fill-rule="evenodd">
        <g id="Desktop-HD" transform="translate(-158.000000, -63.000000)" fill-rule="nonzero" fill="#4A80A7">
            <g id="icon_menu" transform="translate(159.000000, 63.000000)">
                <path d="M0.5,2.5 L19.6049732,2.5 C20.1572579,2.5 20.6049732,2.05228475 20.6049732,1.5 C20.6049732,0.94771525 20.1572579,0.5 19.6049732,0.5 L0.5,0.5 C-0.0522847498,0.5 -0.5,0.94771525 -0.5,1.5 C-0.5,2.05228475 -0.0522847498,2.5 0.5,2.5 Z" id="Line"></path>
                <path d="M0.5,10.5 L12.0974135,10.5 C12.6496983,10.5 13.0974135,10.0522847 13.0974135,9.5 C13.0974135,8.94771525 12.6496983,8.5 12.0974135,8.5 L0.5,8.5 C-0.0522847498,8.5 -0.5,8.94771525 -0.5,9.5 C-0.5,10.0522847 -0.0522847498,10.5 0.5,10.5 Z" id="Line"></path>
                <path d="M0.5,18.5 L17.007574,18.5 C17.5598588,18.5 18.007574,18.0522847 18.007574,17.5 C18.007574,16.9477153 17.5598588,16.5 17.007574,16.5 L0.5,16.5 C-0.0522847498,16.5 -0.5,16.9477153 -0.5,17.5 C-0.5,18.0522847 -0.0522847498,18.5 0.5,18.5 Z" id="Line"></path>
            </g>
        </g>
    </g>
</svg>
