<?xml version="1.0" encoding="UTF-8" standalone="no"?>
<svg width="12px" height="11px" viewBox="0 0 12 11" version="1.1" xmlns="http://www.w3.org/2000/svg" xmlns:xlink="http://www.w3.org/1999/xlink">
    <!-- Generator: Sketch 47.1 (45422) - http://www.bohemiancoding.com/sketch -->
    <title>Combined Shape</title>
    <desc>Created with Sketch.</desc>
    <defs></defs>
    <g id="Page-1" stroke="none" stroke-width="1" fill="none" fill-rule="evenodd">
        <g id="Desktop-HD" transform="translate(-439.000000, -624.000000)" fill-rule="nonzero" fill="#ffffff">
            <g id="Project-Tile" transform="translate(286.000000, 203.000000)">
                <g id="Group-5" transform="translate(18.000000, 234.000000)">
                    <g id="Group-3" transform="translate(19.000000, 182.000000)">
                        <g id="Group-2" transform="translate(116.000000, 5.000000)">
                            <path d="M10.2928932,5 L7.02334098,1.73044776 C6.82807884,1.53518562 6.82807884,1.21860313 7.02334098,1.02334098 C7.21860313,0.828078838 7.53518562,0.828078838 7.73044776,1.02334098 L11.8535534,5.14644661 C11.9511845,5.24407768 12,5.37203884 12,5.5 C12,5.62796116 11.9511845,5.75592232 11.8535534,5.85355339 L7.73044776,9.97665902 C7.53518562,10.1719212 7.21860313,10.1719212 7.02334098,9.97665902 C6.82807884,9.78139687 6.82807884,9.46481438 7.02334098,9.26955224 L10.2928932,6 L0.5,6 C0.223857625,6 0,5.77614237 0,5.5 C0,5.22385763 0.223857625,5 0.5,5 L10.2928932,5 Z" id="Combined-Shape"></path>
                        </g>
                    </g>
                </g>
            </g>
        </g>
    </g>
</svg>
