<?xml version="1.0" encoding="utf-8"?>
<!-- Generator: Adobe Illustrator 15.0.2, SVG Export Plug-In . SVG Version: 6.00 Build 0)  -->
<!DOCTYPE svg PUBLIC "-//W3C//DTD SVG 1.1//EN" "http://www.w3.org/Graphics/SVG/1.1/DTD/svg11.dtd">
<svg version="1.1" id="Layer_1" xmlns="http://www.w3.org/2000/svg" xmlns:xlink="http://www.w3.org/1999/xlink" x="0px" y="0px"
	 width="66.102px" height="60px" viewBox="0 0 66.102 60" enable-background="new 0 0 66.102 60" xml:space="preserve">
<g>
	<path fill="#A8B5BF" d="M17.403,36.961c0.068,2.68-2.711,5.134-5.42,6.114c-4.911,1.777-9.133-0.849-10.678-5.119
		c-2.891-7.987,3.945-13.628,10.6-20.346c5.059-5.102,10.209-9.069,15.161-15.387c0,0,3.862-4.142,2.982,0.67
		s-6.833,37.361-6.833,37.361c3.183-2.967,7.309-7.479,9.614-13.454c0,0,0.23,0.339,0.783,0.866
		c-3.023,8-6.677,13.112-11.116,16.482l-1.351,7.604c-1.317,7.122-8.689,8.7-10.351,4.109c-1.295-3.581,1.781-7.707,7.556-11.978
		l6.935-34.966c-2.462,3.955-7.193,7.855-10.765,11.328c-5.607,5.456-11.87,9.955-9.628,16.152c1.047,2.894,3.591,4.181,6.031,3.321
		c0.693-0.244,1.277-0.701,3.493-4.118C17.141,31.402,17.403,36.961,17.403,36.961z M16.87,52.418l0.808-4.654
		c-3.202,2.77-3.79,4.591-3.342,5.83C14.802,54.878,16.507,54.574,16.87,52.418z"/>
	<path fill="#A8B5BF" d="M26.368,51.464c-0.767-1.488-0.776-1.709-0.677-2.137c1.164-5.066,1.513-7.86,1.513-7.86
		c1.709-10.35,3.858-22.213,5.858-26.753c0.929-2.1,2.637-3.027,4.102-3.027c2.44,0,3.369,1.221,3.369,3.076
		c0,3.955-4.199,10.643-7.226,14.353l-0.781,4.053c1.562-3.271,3.514-5.273,5.662-5.273c2.002,0,2.881,1.367,2.881,3.32
		c0,3.222-2.489,7.958-6.248,10.058c1.513,2.245,1.219,5.712,2.586,5.712c1.173,0,3.272-2.392,5.42-8.007
		c0.293,0,1.367,0.39,1.367,0.684c-2.147,5.564-4.442,11.229-7.86,11.229c-3.955,0-3.906-5.613-4.687-8.593h-0.732
		c-0.44,2.783-2.878,10.022-3,10.777C27.791,53.829,27.136,52.951,26.368,51.464z M36.529,31.41c-1.171,0-2.783,1.66-4.882,6.543
		l-0.244,1.514c0.586,0,1.123,0.145,1.562,0.292c2.148-1.757,4.395-5.518,4.395-7.372c0-0.488-0.146-0.88-0.587-0.977
		C36.676,31.41,36.627,31.41,36.529,31.41z M37.848,15.543c0-0.439-0.195-0.684-0.44-0.684c-0.78,0-1.415,2.051-3.173,10.155
		c1.416-2.636,2.979-6.2,3.564-9.081C37.799,15.788,37.848,15.641,37.848,15.543z"/>
	<path fill="#A8B5BF" d="M47.121,38.1c0-1.466-0.438-2.588-0.977-3.614l-1.953,5.176c0,0-1.367-0.243-1.367-0.635v-0.049
		c0.88-2.344,1.514-4.785,2.004-7.128c-0.49-1.074-0.88-2.392-0.88-4.101c0-1.563,1.493-4.794,2.274-7.333
		c0,0,2.195,1.485,2.511,2.353c0.314,0.868-0.587,5.565-1.367,8.105c1.61,1.659,3.71,3.611,3.71,6.396
		c0,3.124-3.271,8.007-3.271,12.253c0,5.42,3.368,7.471,6.883,7.471c4.297,0,6.688-3.418,6.688-6.982
		c0-2.147-0.24-5.186-1.822-6.202s1.92-3.074,1.92-3.074c2.686,2.051,4.004,5.126,4.004,8.203c0,5.272-3.857,10.496-10.838,10.496
		c-5.419,0-10.741-3.613-10.741-9.96C43.899,44.934,47.121,40.589,47.121,38.1z"/>
	<path fill="#A8B5BF" d="M54.965,47.322c0,0.288-0.108,0.533-0.323,0.735c-0.213,0.201-0.512,0.356-0.894,0.466
		c0.343,0.131,0.596,0.292,0.758,0.481c0.163,0.188,0.245,0.398,0.245,0.629c0,0.453-0.216,0.834-0.648,1.143
		c-0.431,0.31-0.983,0.463-1.658,0.463c-0.508,0-0.913-0.099-1.216-0.3c-0.302-0.199-0.452-0.464-0.452-0.79
		c0-0.314,0.109-0.584,0.33-0.807c0.221-0.221,0.558-0.384,1.01-0.487c-0.267-0.129-0.458-0.289-0.574-0.479
		c-0.117-0.19-0.175-0.39-0.175-0.599c0-0.205,0.055-0.397,0.163-0.577c0.107-0.178,0.26-0.333,0.455-0.467
		c0.181-0.125,0.403-0.226,0.668-0.299c0.265-0.074,0.531-0.112,0.804-0.112c0.458,0,0.825,0.095,1.098,0.284
		S54.965,47.034,54.965,47.322z M53.595,50.01c0-0.127-0.034-0.236-0.1-0.324c-0.066-0.089-0.155-0.169-0.267-0.242
		c-0.12-0.076-0.26-0.152-0.423-0.23c-0.163-0.076-0.321-0.156-0.477-0.238c-0.105,0.104-0.207,0.268-0.305,0.488
		c-0.099,0.22-0.149,0.452-0.149,0.699c0,0.248,0.065,0.444,0.195,0.587c0.131,0.144,0.305,0.215,0.525,0.215
		c0.298,0,0.54-0.093,0.723-0.28C53.503,50.495,53.595,50.271,53.595,50.01z M53.878,47.262c0-0.192-0.048-0.351-0.139-0.477
		c-0.093-0.125-0.226-0.186-0.4-0.186c-0.229,0-0.424,0.085-0.583,0.257c-0.162,0.172-0.242,0.376-0.242,0.612
		c0,0.117,0.027,0.216,0.079,0.3c0.053,0.082,0.123,0.156,0.213,0.224c0.074,0.054,0.185,0.12,0.33,0.198
		c0.146,0.077,0.277,0.149,0.396,0.215c0.094-0.146,0.175-0.326,0.243-0.539C53.843,47.654,53.878,47.453,53.878,47.262z"/>
	<path fill="#A8B5BF" d="M56.079,52.331c-0.435,0-0.8-0.096-1.097-0.286s-0.444-0.417-0.444-0.681c0-0.155,0.049-0.286,0.149-0.393
		c0.101-0.108,0.232-0.161,0.398-0.161c0.174,0,0.313,0.049,0.419,0.146c0.106,0.098,0.16,0.225,0.16,0.38
		c0,0.109-0.019,0.225-0.057,0.349c-0.036,0.123-0.067,0.218-0.091,0.286c0.036,0.009,0.1,0.022,0.187,0.038
		c0.089,0.014,0.174,0.021,0.261,0.021c0.111,0,0.232-0.037,0.363-0.108c0.132-0.07,0.252-0.174,0.358-0.308
		c0.115-0.144,0.208-0.306,0.28-0.485c0.069-0.18,0.104-0.402,0.104-0.667c0-0.247-0.063-0.444-0.187-0.59
		c-0.125-0.146-0.302-0.219-0.53-0.219c-0.111,0-0.21,0.016-0.297,0.044c-0.087,0.027-0.171,0.065-0.251,0.111
		c-0.084,0.047-0.155,0.095-0.214,0.142c-0.059,0.046-0.121,0.102-0.187,0.171l-0.244-0.09l0.841-2.45h2.776l-0.207,0.903h-2.507
		l-0.359,1.104c0.204-0.118,0.39-0.203,0.559-0.255c0.167-0.052,0.352-0.078,0.551-0.078c0.177,0,0.349,0.019,0.512,0.055
		c0.165,0.035,0.323,0.105,0.477,0.206c0.149,0.097,0.269,0.224,0.357,0.377c0.09,0.154,0.135,0.338,0.135,0.556
		c0,0.527-0.217,0.974-0.652,1.337C57.21,52.15,56.688,52.331,56.079,52.331z"/>
</g>
</svg>
